# Blender 5.2.0 LTS
# www.blender.org
mtllib PAREDES ESPELHOS.mtl
o PAREDE_ESPELHOS
v -3.500000 0.000000 -3.375000
v -3.500000 2.850000 -3.375000
v 3.500001 0.000000 3.625000
v -3.500000 0.000000 3.625000
v 3.500001 2.850000 3.625000
v -3.500000 2.850000 3.625000
vn -0.0000 -0.0000 -1.0000
vn 1.0000 -0.0000 -0.0000
vt -0.341667 -1.183333
vt -0.341667 2.183333
vt 3.025000 2.183333
vt 3.025000 -1.183333
vt 71.199997 -1.183333
vt 71.199997 2.183333
vt -23.066666 2.183333
vt -23.066666 -1.183333
s 0
usemtl Shiny_Metal
f 4/1/1 6/2/1 5/3/1 3/4/1
f 1/5/2 2/6/2 6/7/2 4/8/2
