# Blender 5.2.0 LTS
# www.blender.org
mtllib PAREDE PROJETORES.mtl
o PAREDE_PROJECÃO
v -3.500000 0.000000 -3.375000
v -3.500000 2.850000 -3.375000
v 3.500000 0.000000 -3.375000
v 3.500000 2.850000 -3.375000
v 3.500001 0.000000 3.625000
v 3.500001 2.850000 3.625000
vn -0.0000 -0.0000 1.0000
vn -1.0000 -0.0000 -0.0000
vt 0.500000 -0.000000
vt 0.500000 1.000000
vt 0.000000 1.000000
vt 0.000000 0.000000
vt 1.000000 0.000000
vt 1.000000 1.000000
vt 0.500000 0.000000
s 0
usemtl PIXEL_MAP
f 3/1/1 4/2/1 2/3/1 1/4/1
f 5/5/2 6/6/2 4/2/2 3/7/2
