# Blender 5.2.0 LTS
# www.blender.org
mtllib PISO_TETO.mtl
o PISO
v -3.499999 0.000000 3.625000
v 3.500001 0.000000 3.625000
v -3.499999 0.000000 -3.375000
v 3.500001 0.000000 -3.375000
vn -0.0000 1.0000 -0.0000
vt 0.000000 0.000000
vt 1.000000 0.000000
vt 1.000000 1.000000
vt 0.000000 1.000000
s 0
f 1/1/1 2/2/1 4/3/1 3/4/1
o TETO
v -3.499999 2.850000 3.625000
v 3.500001 2.850000 3.625000
v -3.499999 2.850000 -3.375000
v 3.500001 2.850000 -3.375000
vn -0.0000 1.0000 -0.0000
vt 0.000000 0.000000
vt 1.000000 0.000000
vt 1.000000 1.000000
vt 0.000000 1.000000
s 0
f 5/5/2 6/6/2 8/7/2 7/8/2
